<?xml version="1.0" encoding="utf-8"?>
<!-- Generator: Adobe Illustrator 16.0.0, SVG Export Plug-In . SVG Version: 6.00 Build 0)  -->
<!DOCTYPE svg PUBLIC "-//W3C//DTD SVG 1.1//EN" "http://www.w3.org/Graphics/SVG/1.1/DTD/svg11.dtd">
<svg version="1.1" xmlns="http://www.w3.org/2000/svg" xmlns:xlink="http://www.w3.org/1999/xlink" x="0px" y="0px" width="569px"
	 height="400px" viewBox="0 0 569 400" enable-background="new 0 0 569 400" xml:space="preserve">
<g id="Layer_1">
	<g>
		<g>
			<path fill="#FFC711" d="M583.082,200.475c-0.146-0.087-0.236-0.143-0.26-0.159C582.791,200.292,582.891,200.354,583.082,200.475z
				"/>
		</g>
	</g>
	<g>
		<path fill="#223559" d="M370.835,370.194c5.893-11.521,7.995-24.336,3.478-36.728c-5.377-14.746-17.954-25.838-30.861-34.071
			c-16.19-10.329-35.891-17.349-53.712-24.322c-11.969-4.683-23.581-8.834-35.778-12.892c-27.335-9.094-57.321-17.442-84.562-26.832
			c-20.604-7.101-38.348-13.584-58.137-22.768c-8.588-3.984-36.018-12.839-39.691-21.421c-0.853-1.993-0.717-5.401,0.663-7.85
			c1.893-3.361,4.527-4.842,7.726-6.924c10.744-6.988,38.214-12.047,51.765-13.673l48.854-6.032
			c-46.55,4.929-55.629,6.032-78.396,11.045c-13.311,2.932-32.795,10.164-32.66,20.056c0.149,10.914,26.154,19.786,36.048,24.393
			c19.113,8.902,40.307,17.457,60.169,24.393c28.563,9.977,56.625,19.87,85.375,29.272c11.843,3.873,24.519,9.497,36.158,13.947
			c17.088,6.536,32.177,13.015,48.037,22.208c13.258,7.685,27.762,17.983,32.964,33.146c4.196,12.228,0.104,25.116-6.782,35.502
			c-7.597,11.456-17.801,21.004-28.762,29.355H146.95c51.187-22.059,87.923-44.762,88.844-64.71
			c1.901-41.173-68.244-69.771-130.131-95.006c-42.813-17.454-83.255-33.942-84.111-49.773c-0.094-1.745,0.65-3.462,2.273-5.241
			c17.685-19.403,122.614-31.517,209.158-38.332c14.831-0.436,28.72-0.686,41.022-0.799c-45.859,2.031-86.581,16.765-107.652,15.828
			c-36.59-1.626-53.037,8.024-53.741,19.967c-0.793,13.467,36.869,24.411,109.114,44.185
			c109.228,29.893,274.292,75.069,272.241,155.115c-0.164,6.358-1.277,12.613-3.239,18.766H345.573
			C355.567,391.518,364.913,381.772,370.835,370.194z"/>
		<path fill="#FFFFFF" d="M361.493,370.645c6.886-10.386,10.978-23.274,6.782-35.502c-5.202-15.163-19.707-25.462-32.964-33.146
			c-15.859-9.193-30.949-15.672-48.037-22.208c-11.639-4.45-24.315-10.074-36.158-13.947c-28.75-9.402-56.811-19.296-85.375-29.272
			c-19.862-6.936-41.056-15.49-60.169-24.393c-9.894-4.607-35.899-13.479-36.048-24.393c-0.135-9.892,19.349-17.124,32.66-20.056
			c22.767-5.013,31.846-6.116,78.396-11.045l-48.854,6.032c-13.551,1.626-41.021,6.686-51.765,13.673
			c-3.199,2.082-5.833,3.563-7.726,6.924c-1.38,2.449-1.515,5.857-0.663,7.85c3.673,8.582,31.103,17.437,39.691,21.421
			c19.789,9.184,37.533,15.667,58.137,22.768c27.24,9.39,57.226,17.738,84.562,26.832c12.197,4.058,23.809,8.209,35.778,12.892
			c17.821,6.974,37.521,13.993,53.712,24.322c12.907,8.233,25.483,19.325,30.861,34.071c4.517,12.392,2.415,25.206-3.478,36.728
			c-5.922,11.578-15.268,21.323-25.262,29.806h-12.841C343.692,391.648,353.896,382.101,361.493,370.645z"/>
	</g>
	<path id="XMLID_43_" fill-rule="evenodd" clip-rule="evenodd" fill="#E7B513" d="M186.759,63.417h1.812v10.88h2.177V73.39h5.077
		V43.77h10.016c0,0,1.029-3.208,2.057-3.208c1.032,0,1.032,3.208,1.032,3.208h2.671v0.907h14.146v2.719h0.724v26.9h4.352v-2.719
		h3.99v-2.177h0.905v3.083h4.897v-3.037h22.004l3.14,3.574l1.814-0.18v-4.346h5.802V66.5h5.077v-2.177h3.083V62.51h3.083v-7.714
		l0.907-1.887v8.652c0,0,0.806,0.026,1.63,0.026c1.028,0,1.423,2.737,1.423,2.737h2.75v12.364h4.17v1.814h0.907v-3.989h0.907V63.71
		h10.154v9.896h2.176v3.082h2.694L312.3,61.833h3.677v-7.797h15.875v6.891h3.264v96.179H7.603v-54.883h17.285c0,0,0-11.624,0-17.294
		c0-5.663,1.619-5.736,1.619-5.736h1.464V77.38h0.909v1.812h0.907v-0.906h1.267c0,0,0-55.008,0-56.521
		c0-1.509,0.402-2.653,1.226-3.031c0.831-0.379,2.673-3.032,2.673-3.032l0.413-2.296h0.586V5.519l-1.995,1.89
		c0,0-1.089-1.515,0-1.515l2.559-4.674l0.291,13.093h0.233v0.651l2.158,3.404l1.14,0.757l0.229,0.752l0.462,0.756v46.759
		l0.062,6.951h10.068v-2.72h1.423c0,0,0.616-1.274,1.852-2.033c1.244-0.752,2.684-0.143,2.684-0.143s0.821,0,2.263,0
		c1.235,0,2.06,2.176,2.06,2.176h0.601V19.199h3.522l3.004-0.025v-3.964h22.778v27.674h25.511v3.711l3.156-3.399l1.921,3.778V82.65
		l5.805,0.93v-9.668h6.165v-3.424h0.905V44.953h23.234l0.616,26.625h2.17v-1.089h0.301c0,0,0.657-1.472,0.657-2.98
		c0-1.891,2.306-1.85,2.306-1.85v-9.931h1.369l0.821-0.724h3.792v1.631h1.452v1.814h6.892v-1.814h1.63v-1.631h3.265v1.631h2.54
		v3.446h0.906"/>
	<path fill="#E7B513" d="M305.368,149.273l60.589-87.838c0.196-0.282,0.407-0.547,0.631-0.796c0.45-0.496,0.955-0.922,1.501-1.276
		c1.361-0.886,2.971-1.329,4.579-1.329c1.608,0,3.216,0.443,4.579,1.329c0.543,0.354,1.05,0.78,1.5,1.276
		c0.225,0.249,0.437,0.514,0.632,0.796l6.521,9.454l54.068,78.385c3.378,4.899-0.427,11.317-6.711,11.317h-60.589h-60.59
		C305.793,160.59,301.987,154.172,305.368,149.273"/>
	<path fill="#E7B513" d="M345.507,142.509l78.335-99.251c0.254-0.32,0.525-0.62,0.815-0.901c0.582-0.559,1.236-1.04,1.941-1.44
		c1.759-1.001,3.839-1.502,5.919-1.502c2.079,0,4.159,0.501,5.92,1.502c0.702,0.4,1.357,0.881,1.938,1.44
		c0.293,0.281,0.566,0.581,0.817,0.901l8.431,10.681l76.261,97.804c4.367,5.535-6.907,3.553-15.031,3.553h-78.336h-78.335
		C346.059,155.296,341.137,148.045,345.507,142.509"/>
	<path fill-rule="evenodd" clip-rule="evenodd" fill="#E7B513" d="M2.343,158.138c0,2.424,2.355,4.39,5.26,4.39l520.217,1.15
		c2.904,0,5.259-1.966,5.259-4.389v-1.646c0-2.425-2.354-4.39-4.445-4.39L8.417,152.102c-3.718,0-6.073,1.965-6.073,4.39V158.138z"
		/>
	<path fill="#E7B513" d="M397.173,72.057l1.858-3.216h-0.488c-0.395,0-0.643-0.427-0.444-0.769l1.719-2.976h-0.476
		c-0.273,0-0.445-0.298-0.309-0.535l1.824-3.162c0.069-0.119,0.189-0.178,0.31-0.178s0.24,0.06,0.309,0.178l1.825,3.162
		c0.138,0.237-0.033,0.535-0.309,0.535h-0.476l1.72,2.976c0.196,0.341-0.05,0.769-0.445,0.769h-0.488l1.856,3.216
		c0.258,0.445-0.063,1-0.577,1h-2.674v1.648h-0.741h-0.741v-1.648h-2.675C397.238,73.057,396.918,72.501,397.173,72.057"/>
	<path fill="#E7B513" d="M466.75,82.962l2.776-4.806h-0.73c-0.59,0-0.959-0.638-0.663-1.148l2.568-4.448h-0.711
		c-0.409,0-0.666-0.444-0.461-0.798l2.728-4.726c0.103-0.177,0.281-0.267,0.462-0.267c0.179,0,0.357,0.089,0.462,0.267l2.727,4.726
		c0.205,0.354-0.051,0.798-0.461,0.798h-0.71l2.568,4.448c0.295,0.511-0.075,1.148-0.664,1.148h-0.731l2.776,4.806
		c0.383,0.665-0.096,1.496-0.862,1.496h-3.998v2.463h-1.106h-1.108v-2.463h-3.995C466.847,84.458,466.367,83.627,466.75,82.962"/>
	<path fill="#E7B513" d="M478.2,97.634l3.361-5.825h-0.883c-0.714,0-1.162-0.773-0.805-1.392l3.113-5.39h-0.861
		c-0.495,0-0.806-0.538-0.561-0.968l3.307-5.726c0.126-0.215,0.342-0.323,0.56-0.323c0.217,0,0.435,0.107,0.559,0.323l3.307,5.726
		c0.247,0.43-0.063,0.968-0.56,0.968h-0.861l3.112,5.39c0.358,0.619-0.09,1.392-0.804,1.392H489.3l3.363,5.825
		c0.466,0.805-0.117,1.811-1.046,1.811h-4.844v2.985h-1.342h-1.343v-2.985h-4.844C478.317,99.445,477.734,98.439,478.2,97.634"/>
	<g>
		<g>
			<polygon fill="#E55A56" points="179.099,91.291 179.099,180.657 137.744,180.657 137.744,91.291 137.744,80.31 179.099,87.176 
							"/>
			<rect x="178.56" y="157.067" fill="#E55A56" width="7.045" height="23.771"/>
			<rect x="314.458" y="157.097" fill="#E55A56" width="6.506" height="23.742"/>
			<rect x="314.458" y="157.097" fill="#85302C" width="2.39" height="23.742"/>
			<rect x="178.157" y="149.839" fill="#E55A56" width="142.807" height="8.36"/>
			<rect x="176.053" y="140.891" fill="#223559" width="147.958" height="8.949"/>
			<g>
				<rect x="185.539" y="160.431" fill="#83C1E9" width="128.888" height="22.642"/>
				<polygon fill="#FFFFFF" points="301.832,180.838 301.295,181.197 301.295,158.558 301.832,158.558 				"/>
				<rect x="288.401" y="158.558" fill="#FFFFFF" width="0.537" height="22.281"/>
				<rect x="275.506" y="158.558" fill="#FFFFFF" width="0.537" height="22.281"/>
				<rect x="262.613" y="158.558" fill="#FFFFFF" width="0.54" height="22.281"/>
				<rect x="249.72" y="158.558" fill="#FFFFFF" width="0.537" height="22.281"/>
				<rect x="236.937" y="158.558" fill="#FFFFFF" width="0.539" height="22.281"/>
				<rect x="223.81" y="158.558" fill="#FFFFFF" width="0.538" height="22.281"/>
				<rect x="185.57" y="165.775" fill="#FFFFFF" width="128.888" height="0.524"/>
				<polygon fill="#FFFFFF" points="301.832,169.809 301.832,180.159 301.562,180.838 301.295,180.838 301.295,169.809 
					301.295,166.299 301.832,166.299 				"/>
				<rect x="288.401" y="166.299" fill="#FFFFFF" width="0.537" height="14.54"/>
				<polygon fill="#DAF0F6" points="276.043,180.838 275.776,180.838 276.043,180.159 				"/>
				<polygon fill="#FFFFFF" points="263.153,169.809 263.153,179.412 262.613,180.773 262.613,169.809 262.613,166.299 
					263.153,166.299 				"/>
				<polygon fill="#AFD9E7" points="236.937,180.838 236.8,180.838 236.937,180.488 				"/>
				<rect x="249.72" y="166.299" fill="#FFFFFF" width="0.537" height="14.54"/>
				<polygon fill="#DAF0F6" points="237.475,180.838 236.937,180.838 236.937,180.488 237.475,179.128 				"/>
				<rect x="197.812" y="160.341" fill="#FFFFFF" width="0.538" height="20.498"/>
				<rect x="210.707" y="160.341" fill="#FFFFFF" width="0.538" height="20.498"/>
				<polygon fill="#4C738C" points="204.419,158.199 216.234,158.199 253.095,158.199 258.782,158.199 259.549,158.199 
					271.949,158.199 308.81,158.199 314.458,158.199 314.458,160.463 307.53,160.463 270.669,160.463 259.549,160.463 
					258.782,160.463 251.817,160.463 214.955,160.463 204.419,160.463 203.649,160.463 185.604,160.463 185.604,158.199 
					203.649,158.199 				"/>
			</g>
			<rect x="173.921" y="149.839" fill="#85302C" width="147.043" height="2.38"/>
			<rect x="171.274" y="88.645" fill="#FFFFFF" width="157.514" height="5.291"/>
			<g>
				<rect x="176.053" y="93.936" fill="#83C1E9" width="147.958" height="46.955"/>
				<rect x="176.053" y="93.936" fill="#4C738C" width="147.958" height="2.136"/>
			</g>
			<path fill="#85302C" d="M136.373,180.657h189.536c0.977,0,1.768,0.625,1.768,1.399l0,0c0,0.773-0.791,1.4-1.768,1.4H136.373
				c-0.975,0-1.766-0.627-1.766-1.4l0,0C134.607,181.283,135.398,180.657,136.373,180.657z"/>
			<g>
				<g>
					<path fill="#85302C" d="M159.168,104.889h4.175c0.578,0,1.046,0.464,1.046,1.035v0.846c0,0.572-0.468,1.034-1.046,1.034h-4.175
						c-0.577,0-1.047-0.462-1.047-1.034v-0.846C158.122,105.353,158.591,104.889,159.168,104.889z"/>
					<path fill="#85302C" d="M166.286,104.889h4.176c0.576,0,1.046,0.464,1.046,1.035v0.846c0,0.572-0.47,1.034-1.046,1.034h-4.176
						c-0.578,0-1.046-0.462-1.046-1.034v-0.846C165.24,105.353,165.708,104.889,166.286,104.889z"/>
				</g>
				<g>
					<path fill="#85302C" d="M164.358,173.435h4.176c0.577,0,1.046,0.462,1.046,1.034v0.846c0,0.572-0.469,1.035-1.046,1.035h-4.176
						c-0.576,0-1.047-0.463-1.047-1.035v-0.846C163.311,173.897,163.782,173.435,164.358,173.435z"/>
					<path fill="#85302C" d="M171.477,173.435h4.174c0.579,0,1.046,0.462,1.046,1.034v0.846c0,0.572-0.468,1.035-1.046,1.035h-4.174
						c-0.579,0-1.047-0.463-1.047-1.035v-0.846C170.429,173.897,170.897,173.435,171.477,173.435z"/>
				</g>
				<path fill="#85302C" d="M174.493,156.358h4.175c0.578,0,1.047,0.463,1.047,1.036v0.846c0,0.572-0.469,1.033-1.047,1.033h-4.175
					c-0.578,0-1.046-0.461-1.046-1.033v-0.846C173.447,156.821,173.915,156.358,174.493,156.358z"/>
				<g>
					<path fill="#85302C" d="M160.275,139.432h4.176c0.578,0,1.046,0.465,1.046,1.035v0.846c0,0.57-0.469,1.035-1.046,1.035h-4.176
						c-0.577,0-1.046-0.464-1.046-1.035v-0.846C159.229,139.897,159.698,139.432,160.275,139.432z"/>
					<path fill="#85302C" d="M167.394,139.432h4.175c0.578,0,1.047,0.465,1.047,1.035v0.846c0,0.57-0.469,1.035-1.047,1.035h-4.175
						c-0.578,0-1.047-0.464-1.047-1.035v-0.846C166.347,139.897,166.816,139.432,167.394,139.432z"/>
				</g>
				<path fill="#85302C" d="M150.062,147.888h4.174c0.579,0,1.048,0.462,1.048,1.035v0.846c0,0.57-0.469,1.033-1.048,1.033h-4.174
					c-0.579,0-1.047-0.463-1.047-1.033v-0.846C149.016,148.35,149.484,147.888,150.062,147.888z"/>
				<path fill="#85302C" d="M145.369,169.52h4.176c0.578,0,1.046,0.461,1.046,1.034v0.847c0,0.57-0.469,1.033-1.046,1.033h-4.176
					c-0.577,0-1.045-0.463-1.045-1.033v-0.847C144.324,169.981,144.792,169.52,145.369,169.52z"/>
				<path fill="#85302C" d="M144.934,132.945l4.175-0.042c0.578-0.006,1.052,0.454,1.057,1.024l0.009,0.846
					c0.004,0.571-0.458,1.04-1.037,1.046l-4.175,0.042c-0.578,0.005-1.051-0.453-1.056-1.025l-0.009-0.846
					C143.892,133.419,144.356,132.951,144.934,132.945z"/>
				<path fill="#85302C" d="M162.221,125.212l4.174-0.042c0.579-0.007,1.051,0.453,1.058,1.024l0.009,0.846
					c0.005,0.572-0.458,1.039-1.036,1.044l-4.175,0.042c-0.578,0.006-1.05-0.453-1.057-1.023l-0.009-0.848
					C161.181,125.686,161.644,125.218,162.221,125.212z"/>
				<g>
					<path fill="#85302C" d="M152.784,160.761h4.176c0.577,0,1.046,0.463,1.046,1.033v0.848c0,0.572-0.469,1.033-1.046,1.033h-4.176
						c-0.578,0-1.045-0.461-1.045-1.033v-0.848C151.739,161.224,152.206,160.761,152.784,160.761z"/>
					<path fill="#85302C" d="M155.903,157.332l4.176-0.041c0.577-0.006,1.052,0.454,1.056,1.023l0.009,0.845
						c0.005,0.572-0.457,1.039-1.036,1.043l-4.174,0.043c-0.578,0.007-1.051-0.453-1.058-1.024l-0.008-0.845
						C154.861,157.804,155.327,157.337,155.903,157.332z"/>
					<path fill="#85302C" d="M159.9,160.761h4.177c0.579,0,1.047,0.463,1.047,1.033v0.848c0,0.572-0.468,1.033-1.047,1.033H159.9
						c-0.576,0-1.044-0.461-1.044-1.033v-0.848C158.855,161.224,159.324,160.761,159.9,160.761z"/>
				</g>
				<path fill="#85302C" d="M152.053,96.133l4.176-0.042c0.577-0.005,1.051,0.454,1.056,1.024l0.009,0.846
					c0.004,0.572-0.458,1.04-1.036,1.045l-4.174,0.041c-0.579,0.006-1.052-0.452-1.057-1.024l-0.009-0.846
					C151.012,96.606,151.477,96.139,152.053,96.133z"/>
				<g>
					<path fill="#85302C" d="M145.53,118.526h4.175c0.578,0,1.047,0.463,1.047,1.035v0.846c0,0.57-0.469,1.035-1.047,1.035h-4.175
						c-0.577,0-1.045-0.464-1.045-1.035v-0.846C144.485,118.989,144.953,118.526,145.53,118.526z"/>
					<path fill="#85302C" d="M148.649,115.098l4.175-0.042c0.577-0.006,1.051,0.452,1.057,1.023l0.008,0.847
						c0.006,0.57-0.457,1.039-1.035,1.044l-4.174,0.042c-0.579,0.006-1.051-0.454-1.057-1.024l-0.009-0.846
						C147.608,115.569,148.072,115.103,148.649,115.098z"/>
					<path fill="#85302C" d="M152.648,118.526h4.175c0.577,0,1.046,0.463,1.046,1.035v0.846c0,0.57-0.469,1.035-1.046,1.035h-4.175
						c-0.578,0-1.046-0.464-1.046-1.035v-0.846C151.602,118.989,152.07,118.526,152.648,118.526z"/>
				</g>
				<g>
					<path fill="#85302C" d="M143.729,86.229h4.176c0.578,0,1.044,0.463,1.044,1.036v0.845c0,0.571-0.467,1.034-1.044,1.034h-4.176
						c-0.578,0-1.046-0.463-1.046-1.034v-0.845C142.682,86.692,143.151,86.229,143.729,86.229z"/>
					<path fill="#85302C" d="M150.847,86.229h4.175c0.579,0,1.045,0.463,1.045,1.036v0.845c0,0.571-0.466,1.034-1.045,1.034h-4.175
						c-0.579,0-1.047-0.463-1.047-1.034v-0.845C149.799,86.692,150.268,86.229,150.847,86.229z"/>
				</g>
			</g>
			<path fill="#85302C" d="M132.976,183.101h196.097c0.977,0,1.768,0.626,1.768,1.4c0,0.773-0.791,1.401-1.768,1.401H132.976
				c-0.976,0-1.768-0.628-1.768-1.401C131.208,183.727,132,183.101,132.976,183.101z"/>
			<rect x="173.644" y="93.936" fill="#85302C" width="2.409" height="58.284"/>
			<rect x="169.856" y="93.936" fill="#85302C" width="5.33" height="2.38"/>
			<rect x="168.866" y="88.645" fill="#85302C" width="2.409" height="7.671"/>
			<g>
				<rect x="176.178" y="101.389" fill="#FFFFFF" width="147.833" height="0.871"/>
				<rect x="300.617" y="96.202" fill="#FFFFFF" width="0.881" height="44.732"/>
				<rect x="266.601" y="96.202" fill="#FFFFFF" width="0.881" height="44.732"/>
				<rect x="232.581" y="96.202" fill="#FFFFFF" width="0.883" height="44.732"/>
				<rect x="198.563" y="96.202" fill="#FFFFFF" width="0.883" height="44.732"/>
				<rect x="176.178" y="133.227" fill="#FFFFFF" width="147.833" height="0.871"/>
			</g>
		</g>
	</g>
	<g>
		<path fill="#FFFFFF" d="M189.89,76.931h5.692c1.84,0,3.113,0.476,3.921,1.292c0.705,0.68,1.066,1.598,1.066,2.771v0.034
			c0,1.819-0.98,3.026-2.476,3.655l2.872,4.147h-3.852l-2.424-3.604h-1.462v3.604h-3.336V76.931z M195.427,82.642
			c1.135,0,1.789-0.544,1.789-1.411v-0.034c0-0.935-0.688-1.411-1.806-1.411h-2.184v2.855H195.427z"/>
		<path fill="#FFFFFF" d="M203.631,76.931h9.682v2.805h-6.38v1.802h5.778v2.601h-5.778v1.887h6.466v2.805h-9.768V76.931z"/>
		<path fill="#FFFFFF" d="M216.478,76.931h3.112l4.953,6.29v-6.29h3.302V88.83h-2.923l-5.142-6.527v6.527h-3.302V76.931z"/>
		<path fill="#FFFFFF" d="M234.294,79.82h-3.611v-2.89h10.559v2.89h-3.611v9.009h-3.336V79.82z"/>
		<path fill="#FFFFFF" d="M250.289,76.931h3.354V88.83h-3.354V76.931z"/>
		<path fill="#FFFFFF" d="M260.16,79.82h-3.611v-2.89h10.559v2.89h-3.611v9.009h-3.336V79.82z"/>
		<path fill="#FFFFFF" d="M280.247,76.846h3.215l5.125,11.984h-3.577l-0.877-2.125h-4.643l-0.86,2.125h-3.508L280.247,76.846z
			 M283.17,84.138l-1.341-3.383l-1.359,3.383H283.17z"/>
		<path fill="#FFFFFF" d="M291.134,76.931h3.336v9.009h5.83v2.89h-9.166V76.931z"/>
		<path fill="#FFFFFF" d="M303.104,76.931h3.336v9.009h5.83v2.89h-9.166V76.931z"/>
	</g>
	<g>
		<g>
			<path fill="#FFC711" d="M5.862,210.18c-0.14-0.083-0.225-0.137-0.248-0.151C5.585,210.005,5.679,210.063,5.862,210.18z"/>
		</g>
	</g>
	<g id="XMLID_5_">
		<g id="XMLID_11_">
			<polygon id="XMLID_18_" fill="#FFC711" points="329.003,82.971 358.929,97.576 386.159,82.985 386.839,84.255 359.665,98.815 
				359.665,168.851 358.224,168.851 358.224,98.834 328.372,84.268 			"/>
			<g id="XMLID_15_">
				
					<rect id="XMLID_17_" x="381.761" y="79.963" transform="matrix(-0.4783 -0.8782 0.8782 -0.4783 491.6259 462.7146)" fill="#FFC711" width="2.983" height="10.735"/>
				<path id="XMLID_16_" fill="#FFC713" d="M388.68,84.073l-9.428,5.135C379.252,89.208,385.784,89.02,388.68,84.073z"/>
			</g>
			<g id="XMLID_12_">
				
					<rect id="XMLID_14_" x="331.191" y="79.962" transform="matrix(0.4782 -0.8783 0.8783 0.4782 98.6595 336.711)" fill="#FFC711" width="2.983" height="10.737"/>
				<path id="XMLID_13_" fill="#FFC713" d="M327.255,84.073l9.43,5.135C336.685,89.208,330.153,89.02,327.255,84.073z"/>
			</g>
		</g>
		
			<linearGradient id="XMLID_2_" gradientUnits="userSpaceOnUse" x1="270.7754" y1="84.3589" x2="270.7754" y2="166.4935" gradientTransform="matrix(-1 0 0 1 588.6699 0)">
			<stop  offset="0" style="stop-color:#FFC713"/>
			<stop  offset="1" style="stop-color:#FFDD0F;stop-opacity:0"/>
		</linearGradient>
		<polygon id="XMLID_10_" opacity="0.6" fill="url(#XMLID_2_)" points="277.565,172.54 327.255,83.986 336.685,89.121 
			358.224,172.563 		"/>
		
			<linearGradient id="XMLID_3_" gradientUnits="userSpaceOnUse" x1="-420.3735" y1="84.3584" x2="-420.3735" y2="166.4931" gradientTransform="matrix(1 0 0 1 818.3086 0)">
			<stop  offset="0" style="stop-color:#FFC713"/>
			<stop  offset="1" style="stop-color:#FFDD0F;stop-opacity:0"/>
		</linearGradient>
		<polygon id="XMLID_9_" opacity="0.6" fill="url(#XMLID_3_)" points="438.266,172.54 388.573,83.986 379.144,89.121 
			357.604,172.563 		"/>
	</g>
	<g>
		<path fill="#927400" d="M287.053,190.585c-0.345-3.807-3.23-5.411-6.468-5.219c-5.781,0.343-6.492,2.906-6.492,6.492
			c0,0.363-0.297,0.656-0.659,0.654l14.842-0.858C287.646,191.693,287.109,191.215,287.053,190.585z"/>
		<path fill="#223559" d="M285.942,187.704c0.095,0.025,0.185,0.035,0.271,0.034c0.366,0.796,0.573,1.682,0.573,2.615
			c0,3.455-2.8,6.255-6.254,6.255c-3.454,0-6.255-2.8-6.255-6.255c0-1.225,0.354-2.365,0.961-3.331
			C278.814,186.377,282.425,186.798,285.942,187.704z"/>
		<path fill="#927400" d="M237.198,190.767v-1.047c0-3.664-3.035-6.619-6.728-6.488c-3.518,0.125-6.255,3.123-6.255,6.644v1.067
			c0,0.583-0.43,1.061-0.988,1.146v0.003l15.427,0.14C237.848,192.226,237.198,191.572,237.198,190.767z"/>
		<circle fill="#223559" cx="230.628" cy="190.353" r="6.255"/>
		<path fill="#000017" d="M275.104,185.906c3.329-0.487,6.703-0.574,10.072-0.388c1.389,0.667,2.558,1.63,3.375,2.807
			c-0.131,0.014-0.271,0.017-0.419,0c-5.509-0.592-11.093-0.547-16.475,0.865C272.443,187.869,273.635,186.731,275.104,185.906z"/>
		<path fill="#FFC711" d="M297.693,181.502c-0.292-0.97-1.137-1.669-2.144-1.774l-12.444-1.317c-0.562-0.059-1.097-0.27-1.549-0.61
			l-8.142-6.123c-0.484-0.365-1.077-0.563-1.685-0.563h-19.574c-0.762,0-1.5,0.273-2.079,0.771l-6.78,5.815
			c-0.605,0.52-1.385,0.785-2.182,0.742c-4.105-0.218-17.367-0.661-22.222,2.386c-0.54,0.338-0.847,0.943-0.798,1.578
			c0.168,2.152,0.792,7.474,2.921,9.332c0.27,0.235,0.619,0.357,0.977,0.36l1.047,0.008c0.647,0.004,1.174-0.518,1.174-1.164v-1.067
			c0-3.521,2.737-6.519,6.255-6.644c3.693-0.131,6.728,2.824,6.728,6.488v1.047c0,0.805,0.65,1.459,1.455,1.466l34.781,0.279
			c0.362,0.001,0.659-0.292,0.659-0.654l0,0c0-3.586,0.711-6.149,6.492-6.492c3.237-0.192,6.123,1.412,6.468,5.219
			c0.056,0.63,0.592,1.108,1.223,1.069l8.102-0.497c0.644-0.04,1.194-0.473,1.383-1.089l1.27-4.148L297.693,181.502z"/>
		<circle fill="#83C1E9" cx="230.627" cy="190.353" r="2.163"/>
		<circle fill="#83C1E9" cx="280.54" cy="190.353" r="2.163"/>
		<path fill="#FFC711" d="M281.557,177.8l-8.142-6.123c-0.486-0.365-1.077-0.563-1.685-0.563h-19.574
			c-0.762,0-1.5,0.273-2.079,0.771l-6.78,5.815c-0.391,0.335-0.854,0.562-1.349,0.671v0.002c0,0,38.162,0.76,41.157,0.037
			C282.544,178.351,282.009,178.14,281.557,177.8z"/>
		<path fill="#223559" d="M249.157,173.687c0.382-0.381,0.48-0.955,0.267-1.439l-6.357,5.453c-0.391,0.335-0.855,0.562-1.348,0.671
			v0.002c0,0,0.792,0.015,2.154,0.04c0.329,0.006,0.649-0.122,0.884-0.354L249.157,173.687z"/>
		<path fill="#223559" d="M250.82,173.441l-4.963,5.004l22.495,0.278v-5.875c0-0.332-0.268-0.601-0.601-0.601h-14.066
			C252.608,172.248,251.577,172.677,250.82,173.441z"/>
		<path fill="#223559" d="M269.228,172.806l0.035,5.912l5.78-0.005l-5.296-6.102C269.567,172.403,269.227,172.531,269.228,172.806z"
			/>
		<path fill="#223559" d="M281.673,177.8l-7.704-5.792c-0.212,0.532-0.069,1.143,0.361,1.523l5.739,5.103
			c1.612-0.049,2.73-0.122,3.151-0.224C282.659,178.351,282.124,178.14,281.673,177.8z"/>
		<g>
			<path fill="#223559" d="M223.041,192.107c0.646,0.004,1.174-0.518,1.174-1.164v-1.067c0-1.061,0.25-2.076,0.693-2.977h-6.154
				c0.44,1.928,1.143,3.863,2.262,4.839c0.27,0.235,0.619,0.357,0.977,0.36L223.041,192.107z"/>
		</g>
		<path fill="#83C1E9" d="M217.981,187.95l0.744,1.928c0.231,0.596,0.804,0.991,1.444,0.991h1.495c0.593,0,1.068-0.493,1.048-1.085
			l-0.084-2.375c-0.021-0.587-0.502-1.053-1.089-1.053h-2.464C218.251,186.355,217.686,187.181,217.981,187.95z"/>
		<path fill="#E55A56" d="M298.298,185.721h-0.633c-0.383,0-0.693,0.311-0.693,0.694l-0.139,4.04
			c-0.012,0.328,0.261,0.595,0.59,0.575l1.156-0.072c0.691-0.097,1.204-0.688,1.204-1.385v-2.367
			C299.783,186.387,299.119,185.721,298.298,185.721z"/>
		<path fill="#927400" d="M238.121,190.135c0,0.745,0.605,1.35,1.35,1.35h32.674c0.746,0,1.351-0.605,1.351-1.35l0,0
			c0-0.745-0.604-1.35-1.351-1.35h-32.674C238.727,188.785,238.121,189.39,238.121,190.135L238.121,190.135z"/>
		<path fill="#FFC711" d="M275.601,185.491c2.891-0.466,5.833-0.533,8.773-0.326c1.228,0.672,2.266,1.643,3.005,2.821
			c-0.113,0.014-0.235,0.015-0.365-0.002c-4.815-0.625-9.684-0.612-14.345,0.766C273.326,187.437,274.339,186.306,275.601,185.491z"
			/>
	</g>
	<g>
		<path fill-rule="evenodd" clip-rule="evenodd" fill="#E55A56" d="M261.935,194.348c0,0,0.184-5.851,4.346-6.374
			c4.161-0.523,16.185-1.552,16.185-1.552s0.254-0.108,0.94-0.444c3.376-2.571,9.046-6.719,13.43-6.697
			c1.252,0.006,21.824,0.11,28.962,0.146c1.507,0.007,2.417,0.011,2.417,0.011l4.948,0.014c0,0-0.192,0.785-0.514,1.242
			c-0.171,0.241-0.809,0.77-1.375,1.218c1.553,2.152,3.942,6.604,3.942,6.604s0.289,1.286,0.281,2.521
			c-0.005,1.236-0.03,5.979-0.03,5.979l-6.411-0.032c-0.728-0.003-1.418-0.319-1.908-0.866c-1.032-1.156-3.192-3.089-6.212-3.276
			c-4.333-0.269-9.147,3.69-8.342,9.386l-31.215-0.156c0,0,0.289-9.033-7.783-9.171c0,0-3.789-0.56-6.362,2.475
			c-0.24,0.285-0.588,0.455-0.958,0.453l-4.347-0.022L261.935,194.348L261.935,194.348z"/>
		<path fill-rule="evenodd" clip-rule="evenodd" fill="#852F2C" d="M266.708,195.697c2.562-3.545,6.886-2.826,6.886-2.826
			c8.072,0.139,7.783,9.171,7.783,9.171h0.001v0.002l-14.863-1.499c-0.447-0.004-0.824-0.339-0.882-0.787l-0.709-3.966
			L266.708,195.697z"/>
		<path fill-rule="evenodd" clip-rule="evenodd" fill="#852F2C" d="M312.593,202.227c-0.805-5.696,4.009-9.655,8.342-9.386
			c3.058,0.189,5.234,2.168,6.252,3.318c0.459,0.522,1.118,0.819,1.811,0.823l0.845,0.004l0.149,5.326L312.593,202.227z"/>
		<path fill-rule="evenodd" clip-rule="evenodd" fill="#E4C79D" d="M262.283,192.191c0.325-1.213,0.951-2.65,2.148-3.505l4.089,0.02
			c0.466,0.002,0.855,0.381,0.854,0.851c0,0.003,0,0.007,0,0.01c-0.008,1.464-0.688,2.657-1.513,2.653L262.283,192.191
			L262.283,192.191z"/>
		<path fill-rule="evenodd" clip-rule="evenodd" fill="#223559" d="M329.058,196.023c-0.72-0.005-1.277,0.634-1.182,1.353
			l0.529,4.049c-0.001,0.492,0.389,0.893,0.877,0.895l6.989,0.03c0.486,0.003,0.885-0.394,0.886-0.885l0.022-4.049
			c0.003-0.75-0.594-1.36-1.335-1.365L329.058,196.023z"/>
		<path fill-rule="evenodd" clip-rule="evenodd" fill="#852F2C" d="M335.476,195.417l-1.424-0.008
			c-0.551-0.002-0.993-0.454-0.991-1.008l0.013-2.716c0.003-0.555,0.451-1.003,0.999-1l1.424,0.008L335.476,195.417L335.476,195.417
			z"/>
		<path fill-rule="evenodd" clip-rule="evenodd" fill="#E4C79D" d="M303.525,186.506c0.463,0,0.839-0.377,0.842-0.845l0.021-4.105
			c0.002-0.471-0.375-0.854-0.842-0.854c-3.759,0.001-5.702,0.003-6.109,0.001c-4.082-0.021-7.007,2.337-9.561,4.248
			c-0.651,0.487-0.31,1.529,0.499,1.53L303.525,186.506z M319.307,186.145l0.025-5.059c0.001-0.214-0.171-0.389-0.384-0.389
			l-12.394,0.005c-0.213,0-0.385,0.172-0.385,0.386l-0.025,5.033c-0.001,0.216,0.171,0.391,0.385,0.391l12.393,0.02
			C319.134,186.531,319.307,186.358,319.307,186.145z M331.497,186.551c0.372,0,0.594-0.416,0.39-0.729
			c-0.961-1.474-3.23-4.698-4.933-5.118c-0.032-0.009-0.065-0.012-0.097-0.012l-5.361,0.003c-0.211,0-0.381,0.172-0.383,0.386
			l-0.026,5.064c0,0.215,0.172,0.39,0.385,0.39L331.497,186.551z"/>
		<path fill-rule="evenodd" clip-rule="evenodd" fill="#223559" d="M277.732,205.638L277.732,205.638
			c2.475-2.476,2.495-6.509,0.044-9.008c-2.451-2.5-6.443-2.521-8.919-0.045c-2.475,2.476-2.495,6.508-0.044,9.008
			C271.265,208.091,275.257,208.111,277.732,205.638L277.732,205.638z"/>
		<path fill-rule="evenodd" clip-rule="evenodd" fill="#E4C79D" d="M272.373,202.356c-0.62-0.634-0.614-1.655,0.012-2.282
			c0.628-0.627,1.64-0.623,2.261,0.011c0.62,0.634,0.616,1.655-0.012,2.283C274.007,202.995,272.995,202.99,272.373,202.356
			L272.373,202.356z"/>
		<path fill-rule="evenodd" clip-rule="evenodd" fill="#223559" d="M325.22,205.638L325.22,205.638
			c2.476-2.476,2.497-6.509,0.044-9.008c-2.451-2.5-6.444-2.521-8.92-0.045c-2.476,2.476-2.495,6.508-0.044,9.008
			C318.75,208.091,322.745,208.111,325.22,205.638L325.22,205.638z"/>
		<path fill-rule="evenodd" clip-rule="evenodd" fill="#E4C79D" d="M319.862,202.356c-0.621-0.634-0.617-1.655,0.011-2.282
			c0.627-0.627,1.638-0.623,2.261,0.011c0.619,0.634,0.614,1.655-0.013,2.283C321.495,202.995,320.482,202.99,319.862,202.356
			L319.862,202.356z"/>
		<path fill-rule="evenodd" clip-rule="evenodd" fill="#E4C79D" d="M289.161,181.998c0.714-0.41,1.503-0.837,2.398-1.288h0.001
			c0,0,0.33,0.303,0.304,0.372s-8.323,5.531-8.323,5.531l-1.075-0.189c0,0,0.254-0.108,0.94-0.444
			C284.956,184.799,286.99,183.287,289.161,181.998z"/>
		<path fill-rule="evenodd" clip-rule="evenodd" fill="#223559" d="M263.069,200.831h1.981c1.018,0,1.842-0.834,1.842-1.862v-3.05
			c0-0.569-0.457-1.031-1.02-1.031h-2.804c-1.019,0-1.843,0.834-1.843,1.862v2.22C261.226,199.997,262.05,200.831,263.069,200.831z"
			/>
		<path fill-rule="evenodd" clip-rule="evenodd" fill="#223559" d="M313.001,198.185c-0.445,1.202-0.618,2.564-0.408,4.045
			l-31.215-0.156c0,0,0.057-1.852-0.627-3.889H313.001z"/>
	</g>
	<rect x="89.872" y="323.961" fill="#E55A56" width="88.691" height="53.872"/>
	<g>
		<rect x="124.653" y="338.997" fill="#FFFFFF" width="19.441" height="38.836"/>
		<rect x="126.744" y="341.029" fill="#223559" width="15.489" height="35.005"/>
	</g>
	<g>
		<rect x="96.485" y="338.89" fill="#FFFFFF" width="22.506" height="20.993"/>
		<rect x="98.2" y="340.641" fill="#83C1E9" width="19.025" height="17.491"/>
	</g>
	<g>
		<rect x="149.755" y="338.89" fill="#FFFFFF" width="22.504" height="20.993"/>
		<rect x="151.47" y="340.641" fill="#83C1E9" width="19.023" height="17.491"/>
	</g>
	<rect x="86.699" y="317.124" fill="#E55A56" width="95.462" height="7.092"/>
	<rect x="86.699" y="324.201" fill="#E2C69C" width="95.462" height="2.232"/>
	<g>
		<rect x="97.318" y="295.42" fill="#FFFFFF" width="75.936" height="15.567"/>
		<rect x="99.622" y="311.356" fill="#223559" width="5.052" height="5.713"/>
		<rect x="165.896" y="311.356" fill="#223559" width="5.052" height="5.713"/>
		<rect x="95.073" y="309.328" fill="#223559" width="80.423" height="2.397"/>
	</g>
	<g>
		<path fill="#223559" d="M100.395,299.455h3.081c0.996,0,1.685,0.261,2.122,0.707c0.381,0.373,0.577,0.875,0.577,1.518v0.019
			c0,0.996-0.531,1.657-1.34,2.001l1.554,2.271h-2.085l-1.312-1.974h-0.791v1.974h-1.806V299.455z M103.392,302.583
			c0.614,0,0.968-0.298,0.968-0.772v-0.02c0-0.512-0.373-0.772-0.978-0.772h-1.182v1.564H103.392z"/>
		<path fill="#223559" d="M107.463,299.455h5.24v1.536h-3.453v0.986h3.127v1.424h-3.127v1.033h3.5v1.536h-5.287V299.455z"/>
		<path fill="#223559" d="M114.048,299.455h1.685l2.681,3.444v-3.444h1.787v6.516h-1.582l-2.783-3.574v3.574h-1.787V299.455z"/>
		<path fill="#223559" d="M123.323,301.037h-1.955v-1.582h5.715v1.582h-1.955v4.934h-1.806V301.037z"/>
		<path fill="#223559" d="M129.664,299.408h1.741l2.773,6.562h-1.936l-0.475-1.163h-2.513l-0.465,1.163h-1.899L129.664,299.408z
			 M131.247,303.401l-0.726-1.852l-0.735,1.852H131.247z"/>
		<path fill="#223559" d="M135.188,299.455h1.806v4.934h3.155v1.582h-4.961V299.455z"/>
		<path fill="#223559" d="M143.756,305.003l1.005-1.201c0.643,0.512,1.359,0.782,2.113,0.782c0.484,0,0.745-0.168,0.745-0.447
			v-0.019c0-0.27-0.214-0.419-1.099-0.623c-1.387-0.316-2.457-0.708-2.457-2.048v-0.019c0-1.21,0.958-2.085,2.522-2.085
			c1.107,0,1.973,0.298,2.681,0.865l-0.903,1.275c-0.596-0.419-1.247-0.643-1.824-0.643c-0.438,0-0.651,0.187-0.651,0.419v0.019
			c0,0.298,0.223,0.429,1.126,0.633c1.499,0.326,2.43,0.811,2.43,2.029v0.019c0,1.331-1.052,2.122-2.634,2.122
			C145.655,306.082,144.557,305.72,143.756,305.003z"/>
		<path fill="#223559" d="M150.694,299.455h1.806v2.438h2.318v-2.438h1.806v6.516h-1.806v-2.476H152.5v2.476h-1.806V299.455z"/>
		<path fill="#223559" d="M157.93,302.731v-0.019c0-1.871,1.508-3.388,3.519-3.388s3.5,1.498,3.5,3.369v0.019
			c0,1.871-1.508,3.388-3.518,3.388C159.419,306.101,157.93,304.603,157.93,302.731z M163.105,302.731v-0.019
			c0-0.94-0.679-1.759-1.675-1.759c-0.987,0-1.647,0.8-1.647,1.74v0.019c0,0.94,0.679,1.759,1.666,1.759
			C162.445,304.472,163.105,303.672,163.105,302.731z"/>
		<path fill="#223559" d="M166.265,299.455h2.792c1.647,0,2.708,0.847,2.708,2.29v0.019c0,1.536-1.182,2.346-2.802,2.346h-0.894
			v1.861h-1.806V299.455z M168.927,302.694c0.642,0,1.033-0.335,1.033-0.847v-0.019c0-0.559-0.391-0.856-1.042-0.856h-0.847v1.722
			H168.927z"/>
	</g>
	<g>
		<path fill="#852F2C" d="M17.306,362.065c-3.791,0-6.865,3.074-6.865,6.867v2.882h13.731v-2.882
			C24.173,365.14,21.099,362.065,17.306,362.065z"/>
		<path fill="#852F2C" d="M74.159,371.794v-2.861c0-3.793-3.076-6.867-6.867-6.867c-3.791,0-6.864,3.074-6.864,6.867v2.882h13.964
			v-0.041C74.309,371.783,74.23,371.788,74.159,371.794z"/>
		<path fill="#E55A56" d="M80.172,367.1c0.175,0.071-0.731-4.76-2.347-6.054c-2.523-2.021-10.676-5.252-14.245-5.148
			c0,0-13.181-7.93-25.129-8.271c-11.944-0.347-23.616,3.088-29.657,5.973l-1.85,0.038c-0.175,0.003-0.336,0.093-0.435,0.236
			l-0.184,0.276c-0.158,0.234-0.113,0.546,0.101,0.726l0.47,0.393c0,0-2.749,4.828-2.84,6.43H3.773
			c-0.505,0-0.924,0.382-0.981,0.881c-0.268,2.462-0.54,9.235,4.628,9.235h3.022v-2.77c0-3.764,2.984-6.914,6.748-6.978
			c3.845-0.064,6.983,3.033,6.983,6.865v2.882h36.255v-2.77c0-3.764,2.982-6.914,6.748-6.978c3.845-0.064,6.982,3.033,6.982,6.865
			v2.861C75.813,371.683,80.744,371.028,80.172,367.1z"/>
		<g>
			<circle fill="#83C1E9" cx="17.308" cy="369.406" r="5.853"/>
			<circle fill="#223559" cx="17.308" cy="369.406" r="1.494"/>
		</g>
		<g>
			<circle fill="#83C1E9" cx="67.409" cy="369.406" r="5.852"/>
			<circle fill="#223559" cx="67.409" cy="369.406" r="1.493"/>
		</g>
		<path fill="#F3DAC3" d="M73.123,359.342c0,0-1.62-0.615-1.518-0.159c0.1,0.456,2.342,2.311,3.463,2.791
			c0.709,0.304,1.748,0.683,2.416,0.918c0.201,0.071,0.375-0.162,0.247-0.332c-0.385-0.52-0.958-1.248-1.312-1.492
			C75.846,360.671,73.123,359.342,73.123,359.342z"/>
		<path fill="#E4C79D" d="M62.897,356.144l0.615-0.221c0.025-0.01,0.028-0.048,0.006-0.062c-0.618-0.361-5.734-3.335-12.273-5.61
			v0.081c0,0.505,0.31,0.954,0.782,1.131c2.061,0.773,7.636,2.938,9.853,4.532C62.175,356.207,62.553,356.263,62.897,356.144z"/>
		<path fill="#E4C79D" d="M8.806,353.594l0.146,0.232c0.217,0.345,0.648,0.489,1.029,0.342c1.598-0.614,5.676-2.181,7.238-2.692
			c0.314-0.102,0.582-0.317,0.75-0.601l0.43-0.724C14.534,351.202,11.221,352.441,8.806,353.594z"/>
		<path fill="#E55A56" d="M8.113,356.239l-1.217-0.971c0,0-2.749,4.828-2.84,6.43h1.003c0.444,0,0.858-0.229,1.088-0.606
			l2.192-3.548C8.605,357.114,8.507,356.556,8.113,356.239z"/>
		<path fill="#E4C79D" d="M17.25,355.134c-0.606-0.499-0.467-1.458,0.26-1.751c3.358-1.345,12.391-4.498,21.421-3.63
			c0,0,13.154,1.604,21.497,7.781c0,0,1.205,1.509-10.374,1.007l-28.113-1.51C21.941,357.031,19.296,356.823,17.25,355.134z"/>
		<path fill="#223559" d="M38.352,349.703l0.518,8.238l1.233,0.066l-0.515-8.164c-0.422-0.062-0.656-0.091-0.656-0.091
			C38.739,349.736,38.545,349.72,38.352,349.703z"/>
		<path fill="#223559" d="M21.94,357.031h0.001l1.133,0.061l4.719-6.703c-0.451,0.084-0.894,0.175-1.33,0.268L21.94,357.031z"/>
		<path fill="#223559" d="M55.908,358.621c0.415-0.013,0.794-0.028,1.139-0.051l-2.38-4.366c-0.513-0.233-1.029-0.458-1.547-0.672
			L55.908,358.621z"/>
	</g>
	<g>
		<path fill="#E55A56" d="M438.33,131.963c1.588,0,4.906,1.126,8.823,1.126c0,0,5.054,10.475,7.806,13.985h-9.489L438.33,131.963z"
			/>
		<polygon fill="#983835" points="438.33,131.963 446.914,147.075 445.47,147.075 		"/>
		<polygon fill="#E55A56" points="438.33,131.963 430.776,147.075 431.635,147.075 438.33,133.677 445.029,147.075 445.888,147.075 
					"/>
		<polygon fill="#F1623E" points="431.635,147.075 445.029,147.075 438.33,133.677 		"/>
		<polygon fill="#83C1E9" points="431.635,147.075 445.029,147.075 438.33,133.677 		"/>
		<path fill="#E4C79D" d="M456.279,147.201c-0.042,0-0.082-0.021-0.106-0.058l-9.126-13.984c-0.038-0.06-0.021-0.137,0.038-0.175
			s0.137-0.022,0.175,0.037l9.125,13.984c0.04,0.059,0.021,0.138-0.037,0.175C456.327,147.194,456.303,147.201,456.279,147.201z"/>
		<path fill="#E4C79D" d="M429.406,147.201c-0.023,0-0.045-0.006-0.064-0.018c-0.061-0.035-0.08-0.113-0.045-0.173l8.925-15.112
			c0.024-0.037,0.063-0.061,0.107-0.061c0.044-0.001,0.086,0.021,0.109,0.059l9.694,15.111c0.037,0.059,0.021,0.137-0.038,0.174
			c-0.06,0.039-0.138,0.022-0.177-0.038l-9.582-14.938l-8.821,14.934C429.491,147.179,429.448,147.201,429.406,147.201z"/>
		<path fill="#84755D" d="M448.265,146.038h-0.419v1.106c0,0,0.076,0.128,0.209,0.128c0.135,0,0.21-0.128,0.21-0.128V146.038z"/>
		<path fill="#84755D" d="M448.509,145.85c-0.106-0.072-0.269-0.119-0.454-0.119c-0.185,0-0.348,0.047-0.452,0.119h-0.122v0.188
			c0,0.169,0.256,0.306,0.574,0.306s0.576-0.137,0.576-0.306v-0.188H448.509z"/>
		<path fill="#E4C79D" d="M447.48,145.85c0-0.168,0.256-0.306,0.574-0.306s0.576,0.138,0.576,0.306c0,0.17-0.258,0.307-0.576,0.307
			S447.48,146.02,447.48,145.85"/>
		<path fill="#E4C79D" d="M448.066,146.645c-0.15,0-0.267-0.053-0.273-0.057c-0.064-0.029-0.092-0.104-0.062-0.167
			c0.03-0.063,0.106-0.09,0.167-0.063l0,0c0.003,0.002,0.167,0.074,0.312,0.002c0.062-0.03,0.139-0.005,0.17,0.058
			c0.03,0.063,0.004,0.139-0.059,0.169C448.231,146.63,448.146,146.645,448.066,146.645z"/>
		<path fill="#E4C79D" d="M448.066,147.013c-0.15,0-0.267-0.052-0.273-0.055c-0.064-0.031-0.092-0.105-0.062-0.168
			c0.03-0.063,0.106-0.09,0.167-0.062l0,0c0.003,0.001,0.167,0.072,0.312,0.001c0.062-0.03,0.139-0.004,0.17,0.058
			c0.03,0.063,0.004,0.139-0.059,0.169C448.231,146.999,448.146,147.013,448.066,147.013z"/>
		<path fill="#84755D" d="M456.488,146.038h-0.42v1.106c0,0,0.077,0.128,0.211,0.128c0.135,0,0.209-0.128,0.209-0.128V146.038z"/>
		<path fill="#84755D" d="M456.732,145.85c-0.104-0.072-0.269-0.119-0.453-0.119s-0.348,0.047-0.452,0.119h-0.124v0.188
			c0,0.169,0.258,0.306,0.576,0.306s0.575-0.137,0.575-0.306v-0.188H456.732z"/>
		<path fill="#E4C79D" d="M455.703,145.85c0-0.168,0.258-0.306,0.576-0.306s0.575,0.138,0.575,0.306c0,0.17-0.257,0.307-0.575,0.307
			S455.703,146.02,455.703,145.85"/>
		<path fill="#E4C79D" d="M456.291,146.645c-0.151,0-0.268-0.053-0.275-0.056c-0.062-0.03-0.091-0.105-0.061-0.168
			c0.028-0.063,0.104-0.09,0.168-0.063c0.004,0.002,0.166,0.072,0.311,0.002c0.062-0.03,0.138-0.005,0.17,0.058
			c0.029,0.063,0.004,0.139-0.06,0.169C456.456,146.63,456.369,146.645,456.291,146.645z"/>
		<path fill="#E4C79D" d="M456.291,147.013c-0.151,0-0.268-0.052-0.275-0.055c-0.062-0.031-0.091-0.105-0.061-0.168
			c0.028-0.063,0.104-0.09,0.168-0.062c0.004,0.001,0.166,0.072,0.311,0.001c0.062-0.031,0.138-0.004,0.17,0.058
			c0.029,0.063,0.004,0.139-0.06,0.169C456.456,146.999,456.369,147.013,456.291,147.013z"/>
		<polygon fill="#4C738C" points="438.33,133.677 441.295,147.089 445.044,147.089 		"/>
		<g>
			<path fill="#84755D" d="M461.518,143.599l-2.677,1.938l0.778,1.076l2.678-1.938c0.297-0.214,0.363-0.63,0.148-0.928
				C462.229,143.451,461.815,143.385,461.518,143.599"/>
			<path fill="#E4C79D" d="M458.691,146.464c-0.215-0.297-0.148-0.712,0.149-0.927c0.297-0.214,0.711-0.149,0.926,0.148
				c0.216,0.298,0.149,0.712-0.147,0.927C459.321,146.829,458.906,146.762,458.691,146.464"/>
			<polygon fill="#D0D1D2" points="460.866,144.071 459.734,144.89 460.866,145.71 461.999,144.89 			"/>
			<path fill="#84755D" d="M460.549,143.599l2.677,1.938l-0.776,1.076l-2.679-1.938c-0.296-0.214-0.364-0.63-0.147-0.928
				C459.837,143.451,460.252,143.385,460.549,143.599"/>
			<path fill="#E4C79D" d="M463.375,146.464c0.217-0.297,0.148-0.712-0.149-0.927c-0.295-0.214-0.711-0.149-0.927,0.148
				c-0.214,0.298-0.148,0.712,0.15,0.927C462.744,146.829,463.161,146.762,463.375,146.464"/>
			<path fill="#FFC711" d="M462.919,140.159c-0.043-0.145-0.102,0.632-0.16,0.492c-0.184-0.438-0.43-0.854-0.62-1.285
				c-0.267-0.597-0.221-1.634-0.241-1.69c-0.059-0.157-0.21,0.919-0.29,0.779c-0.374-0.652-0.673-1.25-0.673-1.787
				c0,0.905-0.85,1.982-1.479,3.202c-0.097,0.187-0.378,0.527-0.587-0.322c-0.213-0.85,0.15,1.315,0.088,1.532
				c-0.503,1.726,1.287,2.37,1.978,2.37c0.588,0,2.24-0.477,2.06-1.673C462.894,141.11,462.993,140.416,462.919,140.159"/>
			<path fill="#E55A56" d="M462.192,141.942c-0.32-1.098-1.258-2.046-1.258-2.804c0,0.758-0.938,1.707-1.259,2.804
				c-0.318,1.097,0.819,1.507,1.259,1.507C461.373,143.449,462.511,143.04,462.192,141.942"/>
			<path fill="#223559" d="M461.353,142.93c-0.108-0.379-0.433-0.707-0.433-0.968c0,0.262-0.324,0.589-0.437,0.968
				c-0.11,0.378,0.284,0.52,0.437,0.52C461.07,143.449,461.463,143.308,461.353,142.93"/>
		</g>
		<g>
			<g>
				<rect x="509.936" y="147.396" fill="#852F2C" width="10.544" height="4.496"/>
				<rect x="471.271" y="145.626" fill="#852F2C" width="15.092" height="6.265"/>
				<path fill="#FFC711" d="M468.125,138.704c-0.807,2.003-0.785,5.991-0.785,8.15v2.886c0,1.188,0.964,2.152,2.152,2.152h2.374
					c2.487,0,2.375-2.102,2.532-3.381c0.138-1.11,1.08-1.944,2.199-1.944h4.105c1.119,0,2.062,0.834,2.198,1.944l0.112,1.379
					c0.091,1.13,1.036,2.002,2.172,2.002h25.186l0.283-2.627c0.113-0.573,0.616-0.988,1.202-0.988h6.597
					c0.586,0,1.089,0.415,1.202,0.988l0.282,2.627h5.1v-0.95c0-5.995-0.618-13.968-1.844-19.837h-52.199l-2.069,6.827
					L468.125,138.704"/>
				<path fill="#E55A56" d="M519.382,151.251c0,2.314-1.875,4.188-4.188,4.188s-4.188-1.875-4.188-4.188
					c0-2.312,1.876-4.188,4.188-4.188S519.382,148.939,519.382,151.251"/>
				<path fill="#FFFFFF" d="M515.194,153.192c1.07,0,1.939-0.87,1.939-1.94s-0.869-1.94-1.939-1.94s-1.94,0.87-1.94,1.94
					S514.124,153.192,515.194,153.192"/>
				<path fill="#FFC711" d="M523.193,131.104h-52.517c-0.289,0-0.455-0.427-0.282-0.728c0.767-1.335,1.974-2.123,3.259-2.123h45.034
					C520.449,128.254,522.109,129.306,523.193,131.104z"/>
				<path fill="#83C1E9" d="M472.216,152.033h-3.404c-1.312,0-2.373-1.062-2.373-2.374v-1.8c0-0.255,0.206-0.463,0.461-0.463
					c0.248,0,0.45,0.194,0.462,0.441l0.03,0.633c0.024,0.508,0.443,0.908,0.95,0.908h3.874c0.735,0,1.33,0.595,1.33,1.329
					C473.546,151.438,472.951,152.033,472.216,152.033"/>
				<path fill="#83C1E9" d="M525.361,152.033h-5.169c-0.662,0-1.2-0.537-1.2-1.201v-0.243c0-0.664,0.538-1.201,1.2-1.201h5.169
					c0.664,0,1.2,0.537,1.2,1.201v0.243C526.562,151.496,526.025,152.033,525.361,152.033"/>
				<path fill="#E55A56" d="M482.786,151.251c0,2.314-1.876,4.188-4.188,4.188c-2.313,0-4.189-1.875-4.189-4.188
					c0-2.312,1.876-4.188,4.189-4.188C480.91,147.064,482.786,148.939,482.786,151.251"/>
				<path fill="#223559" d="M471.185,142.045c0,0.462-0.375,0.838-0.839,0.838c-0.463,0-0.839-0.376-0.839-0.838
					c0-0.464,0.376-0.84,0.839-0.84C470.81,141.206,471.185,141.582,471.185,142.045"/>
				<path fill="#223559" d="M483.837,140.462h-3.522c-0.167,0-0.303-0.137-0.303-0.303c0-0.167,0.136-0.304,0.303-0.304h3.522
					c0.167,0,0.303,0.136,0.303,0.304C484.14,140.325,484.004,140.462,483.837,140.462"/>
				<path fill="#223559" d="M491.268,139.855h3.521c0.167,0,0.303,0.136,0.303,0.304c0,0.167-0.136,0.303-0.303,0.303h-3.521
					c-0.168,0-0.305-0.137-0.305-0.303C490.963,139.991,491.1,139.855,491.268,139.855"/>
				<path fill="#83C1E9" d="M468.125,138.704c-0.709,0.766-0.844,3.674-0.905,5.566c0.67-2.188,2.433-4.32,4.562-5.161
					c1.327-0.526,2.828-0.763,4.395-0.791c0.06-0.001,0.12-0.001,0.183-0.001h47.917l0.013-0.178
					c-0.285-2.492-0.65-4.904-1.096-7.036h-52.199l-2.069,6.827L468.125,138.704z"/>
				<rect x="486.536" y="131.104" fill="#223559" width="0.15" height="20.787"/>
				<path fill="#E55A56" d="M470.395,130.377c0.021-0.038,0.044-0.074,0.065-0.111h52.144c0.212,0.259,0.408,0.537,0.59,0.838
					h-52.517C470.388,131.104,470.222,130.678,470.395,130.377z"/>
				<path fill="#223559" d="M468.757,143.217c0,0.999-0.382,1.807-0.854,1.807c-0.471,0-0.852-0.808-0.852-1.807
					c0-0.997,0.381-1.807,0.852-1.807C468.375,141.41,468.757,142.22,468.757,143.217"/>
				<path fill="#FFFFFF" d="M478.599,153.192c1.069,0,1.939-0.87,1.939-1.94s-0.87-1.94-1.939-1.94c-1.07,0-1.94,0.87-1.94,1.94
					S477.528,153.192,478.599,153.192"/>
				<path fill="#223559" d="M492.047,131.699c-0.734,0-1.331,0.533-1.331,1.19v3.143c0,0.656,0.597,1.19,1.331,1.19h24.526
					c0.735,0,1.332-0.534,1.332-1.19v-3.143c0-0.657-0.795-1.19-1.528-1.19H492.047"/>
				<path fill="#223559" d="M472.641,136.274c-0.06,0.212-0.006,0.433,0.146,0.605c0.15,0.173,0.376,0.271,0.62,0.271h11.271
					c0.438,0,0.792-0.317,0.792-0.706v-4.077c0-0.39-0.354-0.707-0.792-0.707h-10.12c-0.363,0-0.68,0.221-0.768,0.537
					L472.641,136.274"/>
				<path fill="#223559" d="M468.979,136.467c-0.057,0.159-0.025,0.333,0.083,0.468c0.111,0.134,0.288,0.214,0.473,0.214h1.955
					c0.271,0,0.503-0.163,0.568-0.398l1.253-4.442c0.043-0.157,0.004-0.32-0.108-0.448c-0.111-0.127-0.278-0.201-0.46-0.201h-1.579
					c-0.255,0-0.479,0.146-0.557,0.363L468.979,136.467"/>
			</g>
		</g>
	</g>
	<g>
		<path fill="#58829E" d="M364.287,201.836c3.632,0,6.576,2.945,6.576,6.577v2.764h-13.155v-2.764
			C357.708,204.781,360.652,201.836,364.287,201.836z"/>
		<path fill="#58829E" d="M309.818,211.156v-2.743c0-3.632,2.947-6.577,6.579-6.577c3.632,0,6.577,2.945,6.577,6.577v2.764h-13.379
			v-0.04C309.674,211.146,309.75,211.149,309.818,211.156z"/>
		<path fill="#83C1E9" d="M304.058,206.658c-0.168,0.068,0.7-4.561,2.248-5.8c2.417-1.935,10.229-5.032,13.647-4.932
			c0,0,12.628-7.598,24.076-7.925c11.443-0.331,22.625,2.958,28.413,5.722l1.772,0.037c0.167,0.004,0.322,0.088,0.417,0.228
			l0.176,0.263c0.152,0.224,0.108,0.523-0.097,0.696l-0.45,0.375c0,0,2.633,4.625,2.721,6.16h0.271c0.484,0,0.885,0.365,0.94,0.844
			c0.257,2.359,0.518,8.85-4.433,8.85h-2.896v-2.654c0-3.606-2.858-6.625-6.464-6.685c-3.685-0.062-6.691,2.905-6.691,6.575v2.764
			h-34.734v-2.654c0-3.606-2.858-6.625-6.466-6.685c-3.683-0.062-6.689,2.905-6.689,6.575v2.743
			C308.233,211.049,303.509,210.422,304.058,206.658z"/>
		<g>
			<circle fill="#E55A56" cx="364.285" cy="208.868" r="5.608"/>
			<circle fill="#83C1E9" cx="364.284" cy="208.868" r="1.431"/>
		</g>
		<g>
			<circle fill="#E55A56" cx="316.285" cy="208.868" r="5.606"/>
			<circle fill="#83C1E9" cx="316.285" cy="208.868" r="1.43"/>
		</g>
		<path fill="#F3DAC3" d="M310.811,199.226c0,0,1.552-0.591,1.455-0.152c-0.096,0.437-2.244,2.214-3.318,2.673
			c-0.68,0.29-1.675,0.654-2.315,0.88c-0.193,0.068-0.359-0.155-0.237-0.318c0.369-0.498,0.918-1.195,1.256-1.431
			C308.202,200.5,310.811,199.226,310.811,199.226z"/>
		<path fill="#E4C79D" d="M320.607,196.162l-0.589-0.212c-0.024-0.009-0.028-0.045-0.006-0.059
			c0.591-0.347,5.493-3.195,11.759-5.375v0.078c0,0.483-0.297,0.915-0.75,1.083c-1.974,0.74-7.316,2.814-9.44,4.343
			C321.3,196.222,320.937,196.276,320.607,196.162z"/>
		<path fill="#E4C79D" d="M372.43,193.717l-0.14,0.224c-0.208,0.331-0.621,0.469-0.986,0.327c-1.531-0.588-5.438-2.089-6.935-2.579
			c-0.301-0.097-0.557-0.303-0.719-0.575l-0.411-0.693C366.942,191.428,370.117,192.615,372.43,193.717z"/>
		<path fill="#E55A56" d="M373.093,196.253l1.167-0.93c0,0,2.633,4.625,2.721,6.16h-0.961c-0.425,0-0.823-0.221-1.042-0.582
			l-2.101-3.397C372.622,197.091,372.716,196.555,373.093,196.253z"/>
		<path fill="#E4C79D" d="M364.34,195.194c0.581-0.479,0.447-1.397-0.249-1.676c-3.219-1.289-11.872-4.31-20.523-3.479
			c0,0-12.603,1.538-20.594,7.456c0,0-1.156,1.447,9.938,0.964l26.934-1.446C359.845,197.012,362.379,196.812,364.34,195.194z"/>
		<path fill="#223559" d="M344.123,189.992l-0.496,7.892l-1.181,0.063l0.493-7.82c0.405-0.06,0.628-0.088,0.628-0.088
			C343.752,190.023,343.938,190.007,344.123,189.992z"/>
		<path fill="#223559" d="M359.847,197.012h-0.002l-1.084,0.058l-4.521-6.421c0.432,0.079,0.856,0.167,1.274,0.256L359.847,197.012z
			"/>
		<path fill="#223559" d="M327.303,198.535c-0.397-0.011-0.761-0.028-1.091-0.048l2.28-4.184c0.492-0.223,0.986-0.439,1.482-0.643
			L327.303,198.535z"/>
	</g>
	<g>
		<path fill="#00102E" d="M420.776,222.433c-0.383-4.238-3.596-6.026-7.202-5.812c-6.437,0.381-7.23,3.236-7.23,7.229
			c0,0.404-0.328,0.731-0.732,0.728l16.528-0.955C421.437,223.666,420.84,223.135,420.776,222.433z"/>
		<circle fill="#83C1E9" cx="413.516" cy="222.175" r="6.963"/>
		<circle fill="#E55A56" cx="413.516" cy="222.175" r="2.41"/>
		<path fill="#223559" d="M372.053,208.084c-0.673,0.579-1.542,0.875-2.429,0.826c-4.571-0.241-19.339-0.734-24.745,2.658
			c-0.601,0.376-0.943,1.051-0.889,1.758c0.188,2.396,0.882,8.323,3.253,10.391c0.3,0.262,0.688,0.397,1.087,0.401l1.167,0.01
			c0.72,0.006,1.306-0.576,1.306-1.297v-1.188c0-3.92,3.047-7.259,6.965-7.397c4.113-0.147,7.493,3.144,7.493,7.225v1.165
			c0,0.896,0.724,1.625,1.621,1.632l38.729,0.311c0.404,0.004,0.732-0.323,0.732-0.728l0,0c0-3.992,0.794-6.848,7.23-7.229
			c3.606-0.215,6.819,1.573,7.202,5.812c0.063,0.702,0.66,1.233,1.363,1.189l9.021-0.552c0.716-0.044,1.33-0.527,1.539-1.214
			l1.414-4.619l-1.487-4.92c-0.327-1.079-1.268-1.856-2.389-1.975l-9.196-0.885c-0.624-0.066-1.871-0.357-5.246-0.549
			c-10.519-0.6-13.403,0.729-13.403,0.729l-28.41,0.146l1.749-1.686L372.053,208.084z"/>
		<path fill="#00102E" d="M365.262,222.635v-1.165c0-4.081-3.38-7.372-7.493-7.225c-3.917,0.139-6.965,3.478-6.965,7.397v1.188
			c0,0.65-0.478,1.183-1.1,1.277v0.002l17.178,0.156C365.985,224.26,365.262,223.53,365.262,222.635z"/>
		<circle fill="#83C1E9" cx="357.945" cy="222.175" r="6.965"/>
		<circle fill="#E55A56" cx="357.945" cy="222.175" r="2.408"/>
		<g>
			<path fill="#223559" d="M381.969,200.765c1.64,0.983-0.695,1.726-1.54,2.577l-5.525,5.572c-2.691-0.047-4.353-0.08-4.353-0.08
				v-0.001c0.55-0.122,1.067-0.375,1.501-0.748l7.55-6.476C380.248,201.055,381.259,200.218,381.969,200.765"/>
			<polygon fill="#223559" points="374.905,208.914 374.905,208.914 374.916,208.914 			"/>
		</g>
		<g>
			<path fill="#223559" d="M349.498,224.128c0.719,0.006,1.306-0.576,1.306-1.297v-1.188c0-1.182,0.278-2.311,0.772-3.314h-6.853
				c0.489,2.147,1.272,4.302,2.52,5.389c0.3,0.262,0.688,0.397,1.087,0.401L349.498,224.128z"/>
		</g>
		<path fill="#E55A56" d="M343.862,219.497l0.829,2.147c0.257,0.665,0.896,1.103,1.609,1.103h1.664c0.661,0,1.19-0.547,1.167-1.207
			l-0.094-2.646c-0.023-0.654-0.56-1.173-1.213-1.173h-2.744C344.164,217.722,343.533,218.643,343.862,219.497z"/>
		<path fill="#E55A56" d="M433.301,217.018h-0.705c-0.429,0-0.773,0.345-0.773,0.771l-0.154,4.498
			c-0.014,0.366,0.292,0.663,0.656,0.64l1.288-0.078c0.769-0.108,1.341-0.767,1.341-1.543v-2.635
			C434.953,217.757,434.212,217.018,433.301,217.018z"/>
	</g>
</g>
<g id="Layer_2">
	<g>
		<path fill="#E4C79D" d="M435.784,269.339c0,0,12.778-9.258,5.362-21.562c0,0-40.076-22.136-45.91-21.62
			c-5.836,0.518-9.66,12.38-6.961,14.487L435.784,269.339z"/>
		<path fill="#CFB690" d="M435.784,269.339l-25.724-15.589l11.834-10.685l-3.962,10.867l21.974,11.229
			C437.896,267.808,435.784,269.339,435.784,269.339z"/>
	</g>
	<path fill="#E4C79D" d="M519.896,274.497c0,0-21.025,29.834-20.25,82.31l39.508-13.761
		C539.153,343.046,538.38,299.107,519.896,274.497z"/>
	<polygon fill="#E4C79D" points="566.455,397.333 539.461,342.481 497.938,359.263 514.912,397.333 	"/>
	<polygon fill="#CFB690" points="539.461,345.148 512.003,356.244 526.099,378.194 521.521,356.816 	"/>
	<g>
		<g>
			<path fill="#FFFFFF" d="M529.269,353.187l-70.604,17.971c-5.486,1.396-11.085-1.932-12.481-7.418l-39.782-156.302
				c-1.395-5.485,1.932-11.085,7.42-12.482l70.602-17.97c5.486-1.396,11.087,1.933,12.484,7.417l39.779,156.304
				C538.083,346.19,534.755,351.791,529.269,353.187z"/>
		</g>
		<g>
			
				<rect x="431.515" y="201.354" transform="matrix(0.9691 -0.2467 0.2467 0.9691 -52.9744 124.8148)" fill="#83C1E9" width="80.428" height="145.017"/>
		</g>
		<g>
			<path fill="#83C1E9" d="M496.946,350.283c1.21,2.666,0.032,5.807-2.633,7.018c-2.665,1.212-5.807,0.033-7.019-2.632
				c-1.21-2.663-0.031-5.809,2.632-7.018C492.592,346.438,495.732,347.618,496.946,350.283z"/>
		</g>
	</g>
	<path fill="#83C1E9" d="M438.743,197.873c0.156,0.663,0.819,1.07,1.482,0.913l21.56-5.104c0.662-0.157,1.069-0.82,0.913-1.479l0,0
		c-0.156-0.663-0.818-1.071-1.479-0.915l-21.562,5.104C438.995,196.548,438.587,197.21,438.743,197.873L438.743,197.873z"/>
	<g>
		<path fill="#FFFFFF" d="M485.819,245.834l8.5-2.352c0.446-0.121,0.905,0.136,1.026,0.582l8.473,30.611
			c0.123,0.442-0.141,0.898-0.585,1.024l-8.5,2.351c-0.444,0.124-0.905-0.134-1.026-0.577l-8.471-30.611
			C485.112,246.417,485.374,245.958,485.819,245.834z"/>
		<path fill="#FFFFFF" d="M474.703,260.811l8.502-2.353c0.445-0.123,0.903,0.139,1.025,0.581l5.412,19.559
			c0.123,0.442-0.138,0.9-0.581,1.022l-8.503,2.356c-0.443,0.121-0.904-0.138-1.026-0.581l-5.413-19.562
			C473.997,261.396,474.259,260.932,474.703,260.811z"/>
		<path fill="#FFFFFF" d="M461.703,268.984l8.505-2.354c0.446-0.124,0.904,0.138,1.027,0.582l4.233,15.305
			c0.124,0.444-0.136,0.903-0.579,1.026l-8.507,2.353c-0.441,0.124-0.899-0.138-1.022-0.581l-4.235-15.306
			C461.003,269.566,461.26,269.106,461.703,268.984z"/>
		<path fill="#FFFFFF" d="M449.334,279.427l8.506-2.354c0.44-0.124,0.9,0.138,1.023,0.584l2.431,8.784
			c0.123,0.442-0.135,0.9-0.581,1.023l-8.503,2.354c-0.446,0.122-0.903-0.137-1.025-0.579l-2.431-8.786
			C448.631,280.011,448.89,279.55,449.334,279.427z"/>
		<path fill="#FFFFFF" d="M482.171,235.849l-33.673,36.36c-0.315,0.339-0.842,0.357-1.178,0.044l-6.361-5.751
			c-0.337-0.313-0.358-0.839-0.043-1.18l33.673-36.358l0.065,0.01l-5.472-5.009c-0.163-0.148-0.27-0.36-0.28-0.596
			c-0.018-0.474,0.347-0.872,0.817-0.892v0.004l17.611-0.769c0.022-0.003,0.049-0.003,0.072-0.006
			c0.473-0.02,0.87,0.346,0.893,0.817l-0.005,0.001l0.767,17.609c0.033,0.241-0.041,0.494-0.219,0.688
			c-0.319,0.348-0.856,0.371-1.204,0.051l0,0l-5.44-4.982"/>
	</g>
	<g>
		<path fill="#E4C79D" d="M435.875,330.372c0,0-2.04,9.881,0.932,15.025c2.976,5.14,28.993,3.694,31.327-0.893
			c3.485-6.851-2.148-11.122-2.148-11.122S442.91,331.833,435.875,330.372z"/>
		<path fill="#CFB690" d="M467.765,345.004c-4.631,1.022-11.718,2.095-18.016,0.989c-5.884-1.03-10.783-2.256-13.938-3.127
			c0.242,0.913,0.562,1.776,0.996,2.531C439.671,350.346,463.877,349.188,467.765,345.004z"/>
	</g>
	<g>
		<path fill="#E4C79D" d="M425.782,304.763c0,0-5.468,11.108-3.52,18.135c1.944,7.021,33.291,13.324,37.477,8.599
			c6.256-7.062,0.882-13.874,0.882-13.874S433.687,308.671,425.782,304.763z"/>
		<path fill="#CFB690" d="M459.151,331.976c-5.816-0.215-14.566-1.125-21.706-4.38c-6.67-3.04-12.111-6.004-15.589-8.009
			c0.006,1.157,0.117,2.278,0.406,3.311C424.136,329.658,453.245,335.747,459.151,331.976z"/>
	</g>
	<g>
		<path fill="#223559" d="M451.646,305.062l0.614-1.293c0.686,0.307,1.38,0.381,2.047,0.209c0.428-0.11,0.62-0.317,0.556-0.565
			l-0.004-0.016c-0.062-0.238-0.285-0.322-1.113-0.301c-1.299,0.037-2.334-0.062-2.641-1.249l-0.004-0.016
			c-0.277-1.07,0.371-2.062,1.753-2.42c0.979-0.254,1.812-0.188,2.567,0.152l-0.506,1.334c-0.623-0.234-1.25-0.283-1.76-0.15
			c-0.387,0.1-0.533,0.313-0.48,0.519l0.005,0.017c0.067,0.264,0.295,0.328,1.14,0.302c1.399-0.054,2.333,0.161,2.611,1.239
			l0.004,0.017c0.305,1.177-0.444,2.115-1.844,2.477C453.572,305.58,452.518,305.511,451.646,305.062z"/>
		<path fill="#223559" d="M458.194,299.629l-1.729,0.446l-0.361-1.398l5.053-1.306l0.361,1.398l-1.729,0.446l1.128,4.361
			l-1.597,0.413L458.194,299.629z"/>
		<path fill="#223559" d="M462.266,297.084l4.633-1.197l0.352,1.357l-3.054,0.789l0.226,0.872l2.765-0.715l0.326,1.259l-2.766,0.715
			l0.236,0.914l3.095-0.8l0.351,1.357l-4.674,1.208L462.266,297.084z"/>
		<path fill="#223559" d="M468.164,295.56l4.633-1.197l0.352,1.357l-3.054,0.789l0.226,0.872l2.765-0.715l0.326,1.259l-2.766,0.715
			l0.236,0.914l3.095-0.8l0.351,1.357l-4.674,1.208L468.164,295.56z"/>
		<path fill="#223559" d="M474.062,294.035l2.724-0.704c0.88-0.229,1.549-0.155,2.037,0.14c0.423,0.242,0.71,0.642,0.856,1.209
			l0.004,0.017c0.229,0.88-0.09,1.586-0.727,2.075l1.894,1.653l-1.844,0.477l-1.61-1.444l-0.7,0.181l0.451,1.744l-1.597,0.413
			L474.062,294.035z M477.426,296.114c0.544-0.141,0.789-0.484,0.68-0.903l-0.004-0.018c-0.117-0.452-0.506-0.598-1.041-0.46
			l-1.045,0.271l0.357,1.383L477.426,296.114z"/>
		<path fill="#FFFFFF" d="M485.672,294.878l-3.121-3.037l1.819-0.471l1.727,1.791l0.65-2.405l1.786-0.462l-1.264,4.145l0.563,2.181
			l-1.604,0.415L485.672,294.878z"/>
		<path fill="#FFFFFF" d="M489.453,293.146l-0.004-0.016c-0.428-1.654,0.559-3.34,2.336-3.8c1.777-0.459,3.437,0.524,3.863,2.178
			l0.005,0.018c0.428,1.653-0.559,3.34-2.337,3.8C491.539,295.784,489.881,294.801,489.453,293.146z M494.028,291.962l-0.005-0.016
			c-0.215-0.83-1.002-1.4-1.883-1.172c-0.872,0.225-1.273,1.083-1.059,1.914l0.004,0.018c0.215,0.831,1.003,1.399,1.875,1.174
			C493.842,293.652,494.243,292.794,494.028,291.962z"/>
		<path fill="#FFFFFF" d="M496.91,291.577l-0.835-3.232l1.621-0.42l0.827,3.2c0.215,0.831,0.736,1.118,1.379,0.952
			c0.642-0.166,0.963-0.652,0.754-1.459l-0.838-3.242l1.621-0.419l0.825,3.192c0.481,1.86-0.369,2.948-2.007,3.372
			C498.62,293.944,497.377,293.38,496.91,291.577z"/>
		<path fill="#FFFFFF" d="M502.796,286.606l2.724-0.704c0.88-0.228,1.549-0.154,2.037,0.141c0.423,0.241,0.71,0.642,0.857,1.209
			l0.004,0.017c0.228,0.88-0.09,1.586-0.728,2.074l1.894,1.654l-1.844,0.477l-1.611-1.444l-0.699,0.181l0.451,1.744l-1.597,0.412
			L502.796,286.606z M506.16,288.687c0.543-0.141,0.787-0.484,0.679-0.904l-0.004-0.018c-0.117-0.451-0.506-0.597-1.04-0.459
			l-1.045,0.271l0.357,1.383L506.16,288.687z"/>
		<path fill="#FFFFFF" d="M453.786,309.807l2.954-0.764c0.725-0.187,1.281-0.138,1.707,0.112c0.289,0.171,0.508,0.439,0.61,0.835
			l0.004,0.016c0.173,0.667-0.104,1.159-0.557,1.515c0.759,0.048,1.305,0.329,1.507,1.111l0.004,0.016
			c0.256,0.988-0.395,1.797-1.77,2.152l-2.971,0.768L453.786,309.807z M456.939,311.441c0.484-0.126,0.715-0.36,0.627-0.698
			l-0.004-0.016c-0.081-0.313-0.375-0.431-0.852-0.308l-1.037,0.269l0.262,1.013L456.939,311.441z M457.733,313.562
			c0.485-0.126,0.716-0.388,0.629-0.726l-0.004-0.016c-0.081-0.312-0.381-0.455-0.916-0.316l-1.218,0.315l0.274,1.062
			L457.733,313.562z"/>
		<path fill="#FFFFFF" d="M460.431,311.54l-0.836-3.234l1.621-0.419l0.827,3.201c0.215,0.831,0.736,1.117,1.379,0.951
			c0.642-0.166,0.963-0.652,0.754-1.459l-0.838-3.242l1.621-0.419l0.826,3.193c0.48,1.859-0.37,2.948-2.008,3.371
			C462.14,313.907,460.896,313.342,460.431,311.54z"/>
		<path fill="#FFFFFF" d="M466.736,311.691l0.613-1.291c0.686,0.306,1.381,0.381,2.047,0.208c0.428-0.11,0.62-0.317,0.556-0.565
			l-0.004-0.016c-0.062-0.238-0.284-0.322-1.113-0.301c-1.298,0.038-2.334-0.063-2.641-1.249l-0.004-0.016
			c-0.276-1.07,0.371-2.062,1.753-2.42c0.979-0.253,1.812-0.188,2.568,0.153l-0.507,1.333c-0.622-0.235-1.249-0.282-1.76-0.15
			c-0.387,0.1-0.533,0.313-0.48,0.519l0.005,0.017c0.068,0.263,0.295,0.327,1.14,0.302c1.399-0.054,2.333,0.161,2.611,1.239
			l0.005,0.016c0.304,1.178-0.445,2.116-1.844,2.479C468.661,312.212,467.607,312.143,466.736,311.691z"/>
		<path fill="#FFFFFF" d="M471.3,305.279l1.604-0.415l1.489,5.762l-1.604,0.414L471.3,305.279z"/>
		<path fill="#FFFFFF" d="M473.957,304.593l1.489-0.385l3.157,2.432l-0.787-3.045l1.58-0.408l1.488,5.761l-1.398,0.361l-3.277-2.523
			l0.816,3.16l-1.58,0.408L473.957,304.593z"/>
		<path fill="#FFFFFF" d="M480.415,302.923l4.633-1.197l0.351,1.358l-3.053,0.789l0.225,0.871l2.766-0.715l0.325,1.26l-2.765,0.715
			l0.236,0.913l3.094-0.8l0.352,1.358l-4.674,1.209L480.415,302.923z"/>
		<path fill="#FFFFFF" d="M486.733,306.522l0.614-1.292c0.685,0.307,1.38,0.381,2.047,0.209c0.428-0.11,0.619-0.317,0.556-0.565
			l-0.005-0.016c-0.061-0.238-0.285-0.322-1.113-0.301c-1.298,0.037-2.334-0.063-2.641-1.249l-0.004-0.016
			c-0.276-1.07,0.371-2.063,1.754-2.421c0.979-0.253,1.812-0.187,2.567,0.153l-0.507,1.333c-0.622-0.234-1.249-0.282-1.76-0.15
			c-0.387,0.101-0.533,0.314-0.479,0.52l0.004,0.017c0.068,0.263,0.295,0.327,1.141,0.301c1.399-0.054,2.333,0.162,2.611,1.24
			l0.004,0.016c0.304,1.178-0.444,2.116-1.844,2.478C488.658,307.042,487.604,306.973,486.733,306.522z"/>
		<path fill="#FFFFFF" d="M492.014,305.157l0.615-1.292c0.685,0.307,1.379,0.381,2.046,0.209c0.429-0.11,0.62-0.317,0.556-0.565
			l-0.004-0.016c-0.062-0.238-0.285-0.322-1.113-0.301c-1.299,0.037-2.334-0.063-2.641-1.249l-0.004-0.016
			c-0.276-1.07,0.371-2.063,1.754-2.421c0.979-0.253,1.812-0.187,2.567,0.153l-0.507,1.333c-0.623-0.234-1.25-0.282-1.76-0.15
			c-0.387,0.101-0.533,0.314-0.48,0.52l0.005,0.017c0.067,0.263,0.295,0.327,1.14,0.301c1.399-0.054,2.334,0.162,2.612,1.24
			l0.004,0.016c0.304,1.178-0.445,2.116-1.845,2.478C493.939,305.677,492.886,305.607,492.014,305.157z"/>
		<path fill="#FFFFFF" d="M500.594,299.199l-1.729,0.446l-0.361-1.398l5.053-1.306l0.361,1.398l-1.729,0.446l1.127,4.362
			l-1.596,0.413L500.594,299.199z"/>
		<path fill="#FFFFFF" d="M504.559,299.772l-0.005-0.017c-0.427-1.653,0.559-3.34,2.336-3.8c1.778-0.459,3.437,0.525,3.864,2.18
			l0.005,0.016c0.427,1.654-0.56,3.341-2.337,3.801C506.645,302.411,504.986,301.427,504.559,299.772z M509.133,298.59l-0.004-0.017
			c-0.215-0.831-1.002-1.4-1.883-1.172c-0.873,0.225-1.274,1.083-1.059,1.915l0.004,0.016c0.215,0.831,1.003,1.4,1.875,1.175
			C508.947,300.279,509.348,299.421,509.133,298.59z"/>
		<path fill="#223559" d="M463.771,319.248l-1.729,0.447l-0.361-1.398l5.052-1.306l0.362,1.398l-1.729,0.446l1.127,4.361
			l-1.596,0.412L463.771,319.248z"/>
		<path fill="#223559" d="M467.843,316.704l1.597-0.413l0.557,2.156l2.049-0.529l-0.557-2.156l1.597-0.413l1.489,5.76l-1.598,0.413
			l-0.565-2.188l-2.049,0.529l0.565,2.188l-1.596,0.413L467.843,316.704z"/>
		<path fill="#223559" d="M474.515,314.979l4.633-1.197l0.351,1.357l-3.053,0.789l0.225,0.872l2.766-0.715l0.325,1.26l-2.765,0.715
			l0.236,0.913l3.094-0.8l0.352,1.357l-4.674,1.208L474.515,314.979z"/>
		<path fill="#223559" d="M483.102,312.76l1.49-0.386l3.157,2.433l-0.787-3.045l1.579-0.408l1.489,5.76l-1.399,0.361l-3.277-2.523
			l0.817,3.159l-1.58,0.409L483.102,312.76z"/>
		<path fill="#223559" d="M489.971,310.983l4.633-1.197l0.352,1.357l-3.053,0.789l0.225,0.872l2.766-0.715l0.325,1.26l-2.765,0.715
			l0.236,0.913l3.094-0.8l0.351,1.357l-4.674,1.208L489.971,310.983z"/>
		<path fill="#223559" d="M498.156,311.888l-2.624-2.342l1.834-0.474l1.439,1.356l0.609-1.887l1.794-0.464l-1.165,3.303l2.737,2.437
			l-1.836,0.474l-1.551-1.45l-0.662,2.022l-1.795,0.464L498.156,311.888z"/>
		<path fill="#223559" d="M504.07,308.831l-1.729,0.446l-0.361-1.398l5.053-1.306l0.361,1.398l-1.728,0.446l1.128,4.361
			l-1.597,0.413L504.07,308.831z"/>
		<path fill="#223559" d="M471.377,326.322l1.597-0.413l1.127,4.36l2.79-0.721l0.361,1.399l-4.386,1.134L471.377,326.322z"/>
		<path fill="#223559" d="M476.855,324.906l4.633-1.198l0.352,1.357l-3.054,0.789l0.226,0.872l2.766-0.715l0.325,1.259l-2.765,0.715
			l0.235,0.914l3.095-0.8l0.351,1.357l-4.674,1.209L476.855,324.906z"/>
		<path fill="#223559" d="M482.293,323.5l1.786-0.462l2.25,3.307l0.366-3.982l1.752-0.453l-0.836,6.406l-1.481,0.383L482.293,323.5z
			"/>
		<path fill="#223559" d="M489.417,321.659l4.633-1.198l0.351,1.357l-3.053,0.789l0.226,0.872l2.765-0.715l0.326,1.259l-2.766,0.715
			l0.236,0.914l3.094-0.8l0.352,1.357l-4.674,1.209L489.417,321.659z"/>
		<path fill="#223559" d="M495.315,320.134l1.597-0.412l1.127,4.359l2.79-0.721l0.361,1.399l-4.386,1.134L495.315,320.134z"/>
		<path fill="#223559" d="M500.909,319.434l-0.181-0.699l1.777-0.459l0.181,0.699l0.346,3.308l-0.823,0.213L500.909,319.434z
			 M501.93,323.076l1.629-0.422l0.362,1.399l-1.629,0.422L501.93,323.076z"/>
	</g>
	<g>
		<path fill="#E4C79D" d="M539.153,343.046c11.325-10.631,3.727-78.069-5.317-84.901c-6.117-4.62-32.225-15.046-35.917-13.096
			c-4.366,2.307-3.818,11.644,4.561,18.907c9.948,8.629,17.416,10.541,17.416,10.541s10.586,19.459,14.32,38.092
			C537.948,331.224,539.153,343.046,539.153,343.046z"/>
	</g>
	<g>
		<path fill="#E4C79D" d="M418.665,273.475c0,0,32.144,12.558,33.701,14.154c1.554,1.596,3.261,11.574-2.596,14.967
			c-7.336,4.25-36.3-7.861-36.3-7.861S409.926,280.043,418.665,273.475z"/>
		<path fill="#CFB690" d="M420.196,291.381c-3.023-2.548-5.278-6.601-6.694-9.722c-1.643,6.376-0.031,13.075-0.031,13.075
			s15.686,7.093,29.917,8.436l0,0C443.388,303.17,425.666,295.989,420.196,291.381z"/>
	</g>
</g>
</svg>
